<?xml version="1.0" encoding="utf-8"?>
<!DOCTYPE svg PUBLIC "-//W3C//DTD SVG 1.1//EN" "http://www.w3.org/Graphics/SVG/1.1/DTD/svg11.dtd">
<svg style="width:308px;height:308px;" version="1.1" id="图形" xmlns="http://www.w3.org/2000/svg" xmlns:xlink="http://www.w3.org/1999/xlink" x="0px" y="0px" width="1024px" height="1024px" viewBox="0 0 1024 1024" enable-background="new 0 0 1024 1024" xml:space="preserve">
  <path class="svgpath" data-index="path_0" fill="#000000" d="M678.54336 614.79936c4.864-32.60416 6.85056-54.03648 6.85056-54.03648C712.5504 155.24864 519.96672 56.2688 511.76448 51.2c-8.192 5.0688-200.77568 104.04864-173.62944 509.56288 0 0 2.00704 21.5552 6.90176 54.33344C142.11072 761.4976 217.06752 972.8 217.06752 972.8c45.62944-87.94112 109.0048-129.536 155.0848-149.0432L360.5504 732.2624l33.42336 83.34336c0.03072-0.01024 0.06144-0.02048 0.09216-0.03072 4.90496 12.72832 10.36288 24.9856 16.2816 36.51584 0.24576 0.47104 0.58368 0.93184 0.96256 1.3824 16.46592 30.55616 55.3472 52.02944 100.70016 52.02944 45.53728 0 84.56192-21.6576 100.90496-52.41856 0.29696-0.38912 0.5632-0.78848 0.768-1.18784 5.69344-11.50976 10.96704-23.7568 15.872-36.46464 0.02048 0.01024 0.0512 0.02048 0.07168 0.02048l33.36192-83.18976-11.13088 91.48416c46.08 19.52768 109.44512 61.11232 155.0848 149.05344C806.92224 972.8 882.00192 761.21088 678.54336 614.79936zM512 409.00608c-39.04512 0-70.69696-31.65184-70.69696-70.69696s31.65184-70.69696 70.69696-70.69696c39.04512 0 70.69696 31.65184 70.69696 70.69696S551.04512 409.00608 512 409.00608z" />

</svg>
